# This file uses centimeters as units for non-parametric coordinates.

mtllib Inside_Bend_LP.mtl
g default
v 1.437906 0.000000 -1.586687
v 1.179733 0.000000 -1.941775
v 0.948709 0.000000 -2.284904
v 1.436616 1.000000 -1.554061
v 1.164412 1.000000 -1.910809
v 0.911312 0.600000 -2.283110
v 3.000000 1.000000 -1.999831
v 3.000000 1.000000 -2.499831
v 3.000000 0.600000 -2.999831
v 3.000000 0.000000 -1.999831
v 3.000000 0.000000 -2.499831
v 3.000000 0.000000 -2.999831
v 1.000000 0.000000 0.000000
v 0.500000 0.000000 0.000000
v 0.000000 0.000000 0.000000
v 1.000000 1.000000 0.000000
v 0.500000 1.000000 0.000000
v 0.000000 0.600000 0.000000
v 1.114241 1.000000 -0.878417
v 1.112627 0.000000 -0.888230
v 0.707092 0.000000 -1.072115
v 0.274406 0.000000 -1.249005
v 0.274406 0.600000 -1.249420
v 0.707164 1.000000 -1.067294
v 1.037560 1.000000 -0.452498
v 1.037651 0.000000 -0.452637
v 0.554180 0.000000 -0.550100
v 0.065736 0.000000 -0.645695
v 0.065736 0.600000 -0.645695
v 0.554180 1.000000 -0.550100
v 1.010528 1.000000 -0.227372
v 1.010528 0.000000 -0.227372
v 0.513578 0.000000 -0.276381
v 0.015985 0.000000 -0.325389
v 0.015985 0.600000 -0.325389
v 0.513578 1.000000 -0.276381
v 1.073058 0.000000 -0.674117
v 1.072982 1.000000 -0.670440
v 0.621378 1.000000 -0.817327
v 0.152011 0.600000 -0.954594
v 0.152011 0.000000 -0.954594
v 0.621597 0.000000 -0.817867
v 1.235471 0.000000 -1.274870
v 1.238282 1.000000 -1.249182
v 0.895960 1.000000 -1.527486
v 0.552623 0.600000 -1.814061
v 0.577598 0.000000 -1.814333
v 0.904103 0.000000 -1.550814
v 1.169782 1.000000 -1.070783
v 1.165428 0.000000 -1.088572
v 0.801636 0.000000 -1.318014
v 0.423731 0.000000 -1.537006
v 0.411868 0.600000 -1.538085
v 0.798199 1.000000 -1.303637
v 1.324701 0.000000 -1.442361
v 1.325215 1.000000 -1.411511
v 1.014935 1.000000 -1.732058
v 0.713004 0.600000 -2.065823
v 0.747811 0.000000 -2.067304
v 1.027512 0.000000 -1.761260
v 2.124873 1.000000 -1.910555
v 2.119273 0.000000 -1.921765
v 2.010506 0.000000 -2.367734
v 1.902919 0.000000 -2.812173
v 1.895638 0.600000 -2.811272
v 2.008271 1.000000 -2.362397
v 1.739282 1.000000 -1.771810
v 1.737696 0.000000 -1.800454
v 1.568287 0.000000 -2.203893
v 1.415344 0.000000 -2.602297
v 1.396548 0.600000 -2.600186
v 1.555332 1.000000 -2.182472
v 1.922038 0.000000 -1.868913
v 1.925768 1.000000 -1.848400
v 1.779574 1.000000 -2.282693
v 1.648756 0.600000 -2.714405
v 1.663729 0.000000 -2.715852
v 1.789024 0.000000 -2.294255
v 1.574075 1.000000 -1.675366
v 1.576160 0.000000 -1.705879
v 1.361491 0.000000 -2.088705
v 1.173513 0.000000 -2.461950
v 1.142222 0.600000 -2.460190
v 1.346050 1.000000 -2.060440
v 2.551126 0.000000 -1.983154
v 2.551848 1.000000 -1.982361
v 2.476135 1.000000 -2.467652
v 2.400212 0.600000 -2.952758
v 2.400212 0.000000 -2.952758
v 2.476135 0.000000 -2.467652
v 2.333163 1.000000 -1.955212
v 2.330182 0.000000 -1.960062
v 2.237864 0.000000 -2.425929
v 2.140491 0.000000 -2.893522
v 2.140491 0.600000 -2.893522
v 2.238981 1.000000 -2.425389
v 2.773724 0.000000 -1.995827
v 2.773724 1.000000 -1.995827
v 2.729931 1.000000 -2.491865
v 2.686627 0.600000 -2.988091
v 2.686627 0.000000 -2.988091
v 2.729931 0.000000 -2.491865
vt 0.596663 0.015854
vt 0.526389 0.016649
vt 0.807484 0.013469
vt 0.737210 0.014264
vt 0.456116 0.017444
vt 0.897478 0.012451
vt 0.099758 0.141702
vt 0.096652 0.231984
vt 0.902248 0.434092
vt 0.531160 0.438290
vt 0.601433 0.437495
vt 0.986576 0.433138
vt 0.175089 0.053905
vt 0.283427 0.057631
vt 0.741980 0.435905
vt 0.277216 0.238195
vt 0.280321 0.147913
vt 0.812254 0.435110
vt 0.460886 0.439085
vt 0.981806 0.011496
vt 0.221156 0.301122
vt 0.309323 0.299602
vt 0.312363 0.475936
vt 0.224196 0.477456
vt 0.397490 0.298082
vt 0.399314 0.403882
vt 0.737210 0.014264
vt 0.807484 0.013469
vt 0.812254 0.435110
vt 0.741980 0.435905
vt 0.897478 0.012451
vt 0.902248 0.434092
vt 0.601433 0.437495
vt 0.531160 0.438290
vt 0.526389 0.016649
vt 0.596663 0.015854
vt 0.460886 0.439085
vt 0.456116 0.017444
vt 0.981806 0.011496
vt 0.986576 0.433138
vt 0.739595 0.225084
vt 0.599048 0.226674
vt 0.528775 0.227469
vt 0.458501 0.228264
vt 0.984191 0.222317
vt 0.899863 0.223271
vt 0.809869 0.224289
vt 0.738403 0.119674
vt 0.597856 0.121264
vt 0.527582 0.122059
vt 0.457309 0.122854
vt 0.982999 0.116907
vt 0.898670 0.117861
vt 0.808676 0.118879
vt 0.737807 0.066969
vt 0.597259 0.068559
vt 0.526986 0.069354
vt 0.456712 0.070149
vt 0.982402 0.064202
vt 0.898074 0.065156
vt 0.808080 0.066174
vt 0.598452 0.173969
vt 0.738999 0.172379
vt 0.809273 0.171584
vt 0.899267 0.170566
vt 0.457905 0.175559
vt 0.983595 0.169612
vt 0.528178 0.174764
vt 0.600241 0.332085
vt 0.740788 0.330495
vt 0.811061 0.329700
vt 0.901055 0.328681
vt 0.459694 0.333675
vt 0.985384 0.327727
vt 0.529967 0.332880
vt 0.740192 0.277789
vt 0.599644 0.279379
vt 0.529371 0.280174
vt 0.459097 0.280970
vt 0.984787 0.275022
vt 0.900459 0.275976
vt 0.810465 0.276994
vt 0.600837 0.384790
vt 0.741384 0.383200
vt 0.811658 0.382405
vt 0.901652 0.381387
vt 0.460290 0.386380
vt 0.985980 0.380433
vt 0.530563 0.385585
vt 0.739595 0.225084
vt 0.599048 0.226674
vt 0.528775 0.227469
vt 0.458501 0.228264
vt 0.984191 0.222317
vt 0.899863 0.223271
vt 0.809869 0.224289
vt 0.738403 0.119674
vt 0.597856 0.121264
vt 0.527582 0.122059
vt 0.457309 0.122854
vt 0.982999 0.116907
vt 0.898670 0.117861
vt 0.808676 0.118879
vt 0.598452 0.173969
vt 0.738999 0.172379
vt 0.809273 0.171584
vt 0.899267 0.170566
vt 0.457905 0.175559
vt 0.983595 0.169612
vt 0.528178 0.174764
vt 0.737807 0.066969
vt 0.597259 0.068559
vt 0.526986 0.069354
vt 0.456712 0.070149
vt 0.982402 0.064202
vt 0.898074 0.065156
vt 0.808080 0.066174
vt 0.600241 0.332085
vt 0.740788 0.330495
vt 0.811061 0.329700
vt 0.901055 0.328681
vt 0.459694 0.333675
vt 0.985384 0.327727
vt 0.529967 0.332880
vt 0.740192 0.277789
vt 0.599644 0.279379
vt 0.529371 0.280174
vt 0.459097 0.280970
vt 0.984787 0.275022
vt 0.900459 0.275976
vt 0.810465 0.276994
vt 0.600837 0.384790
vt 0.741384 0.383200
vt 0.811658 0.382405
vt 0.901652 0.381387
vt 0.460290 0.386380
vt 0.985980 0.380433
vt 0.530563 0.385585
vn 0.000000 1.000000 0.000000
vn 0.000000 1.000000 0.000000
vn -0.257490 0.888769 -0.379194
vn -0.271356 0.899420 -0.342649
vn -0.370059 0.744536 -0.555629
vn -0.415307 0.743306 -0.524420
vn 1.000000 0.000000 0.000000
vn 1.000000 0.000000 0.000000
vn 1.000000 0.000000 0.000000
vn 1.000000 0.000000 0.000000
vn 1.000000 0.000000 0.000000
vn 1.000000 0.000000 0.000000
vn 0.000000 -1.000000 0.000000
vn 0.000000 -1.000000 0.000000
vn 0.000000 -1.000000 0.000000
vn 0.000000 -1.000000 0.000000
vn 0.000000 -1.000000 0.000000
vn 0.000000 -1.000000 0.000000
vn -0.613266 -0.032766 -0.789196
vn -0.613266 -0.032766 -0.789196
vn -0.556201 -0.025578 -0.830654
vn -0.552725 -0.025147 -0.832984
vn 0.583081 -0.024151 0.812055
vn 0.657171 -0.022676 0.753400
vn 0.657171 -0.022676 0.753400
vn 0.581185 -0.024185 0.813412
vn 0.000000 0.000000 1.000000
vn 0.000000 0.000000 1.000000
vn 0.000000 0.000000 1.000000
vn 0.000000 0.000000 1.000000
vn 0.000000 0.000000 1.000000
vn 0.000000 0.000000 1.000000
vn 0.000000 1.000000 0.000000
vn 0.000000 1.000000 0.000000
vn -0.406427 0.912774 -0.040757
vn -0.407742 0.912877 -0.020031
vn -0.621969 0.780558 -0.062316
vn -0.624401 0.780501 -0.030675
vn 0.000000 -1.000000 0.000000
vn 0.000000 -1.000000 0.000000
vn 0.000000 -1.000000 0.000000
vn 0.000000 -1.000000 0.000000
vn 0.000000 -1.000000 0.000000
vn 0.000000 -1.000000 0.000000
vn -0.998796 0.000000 -0.049068
vn -0.998796 0.000000 -0.049068
vn -0.994858 0.000000 -0.101283
vn -0.994858 0.000000 -0.101283
vn 0.996566 0.000018 0.082808
vn 0.998930 0.000000 0.046255
vn 0.998930 0.000000 0.046255
vn 0.996566 0.000018 0.082808
vn 0.787232 -0.019257 0.616356
vn 0.787232 -0.019257 0.616356
vn 0.839141 -0.017019 0.543647
vn 0.837603 -0.017092 0.546013
vn 0.000000 -1.000000 0.000000
vn 0.000000 -1.000000 0.000000
vn 0.000000 -1.000000 0.000000
vn 0.000000 -1.000000 0.000000
vn 0.000000 -1.000000 0.000000
vn 0.000000 -1.000000 0.000000
vn -0.790257 -0.041751 -0.611352
vn -0.736018 -0.042442 -0.675630
vn -0.736018 -0.042442 -0.675630
vn -0.787875 -0.041790 -0.614415
vn -0.380377 0.883070 -0.274775
vn -0.371452 0.869264 -0.326195
vn -0.504520 0.741058 -0.443049
vn -0.538003 0.740758 -0.402281
vn 0.000000 1.000000 0.000000
vn 0.000000 1.000000 0.000000
vn 0.974136 -0.004215 0.225924
vn 0.984862 -0.001105 0.173336
vn 0.984850 -0.001109 0.173403
vn 0.974030 -0.004242 0.226379
vn 0.000000 -1.000000 0.000000
vn 0.000000 -1.000000 0.000000
vn 0.000000 -1.000000 0.000000
vn 0.000000 -1.000000 0.000000
vn 0.000000 -1.000000 0.000000
vn 0.000000 -1.000000 0.000000
vn -0.945102 -0.000066 -0.326775
vn -0.909873 -0.004795 -0.414858
vn -0.909885 -0.004792 -0.414834
vn -0.945102 -0.000066 -0.326775
vn -0.402824 0.905997 -0.130012
vn -0.405868 0.898838 -0.165415
vn -0.600994 0.760726 -0.245156
vn -0.604690 0.772412 -0.194239
vn 0.000000 1.000000 0.000000
vn 0.000000 1.000000 0.000000
vn 0.990279 -0.000091 0.139093
vn 0.990279 -0.000091 0.139097
vn 0.000000 -1.000000 0.000000
vn 0.000000 -1.000000 0.000000
vn 0.000000 -1.000000 0.000000
vn -0.977420 0.000000 -0.211305
vn -0.977420 0.000000 -0.211305
vn -0.404023 0.910863 -0.084226
vn -0.614405 0.778594 -0.127667
vn 0.000000 1.000000 0.000000
vn 0.950871 -0.008746 0.309463
vn 0.950583 -0.008791 0.310346
vn 0.000000 1.000000 0.000000
vn -0.414644 0.890285 -0.188315
vn -0.604425 0.747337 -0.275966
vn -0.889078 -0.018245 -0.457391
vn -0.889017 -0.018330 -0.457507
vn 0.000000 -1.000000 0.000000
vn 0.000000 -1.000000 0.000000
vn 0.000000 -1.000000 0.000000
vn 0.911147 -0.012886 0.411881
vn 0.910403 -0.012939 0.413521
vn 0.000000 -1.000000 0.000000
vn 0.000000 -1.000000 0.000000
vn 0.000000 -1.000000 0.000000
vn -0.860734 -0.033940 -0.507922
vn -0.860097 -0.034124 -0.508989
vn -0.412432 0.883900 -0.220503
vn -0.590256 0.739735 -0.323095
vn 0.000000 1.000000 0.000000
vn 0.017696 0.000000 0.999843
vn 0.017696 0.000000 0.999843
vn 0.038040 -0.000207 0.999276
vn 0.038040 -0.000207 0.999276
vn 0.000000 -1.000000 0.000000
vn 0.000000 -1.000000 0.000000
vn 0.000000 -1.000000 0.000000
vn 0.000000 -1.000000 0.000000
vn 0.000000 -1.000000 0.000000
vn 0.000000 -1.000000 0.000000
vn -0.078243 0.000000 -0.996934
vn -0.037438 0.000000 -0.999299
vn -0.037438 0.000000 -0.999299
vn -0.078243 0.000000 -0.996934
vn -0.028135 0.915414 -0.401529
vn -0.013603 0.915214 -0.402738
vn -0.021125 0.779989 -0.625437
vn -0.044205 0.778925 -0.625557
vn 0.000000 1.000000 0.000000
vn 0.000000 1.000000 0.000000
vn 0.235799 -0.012559 0.971721
vn 0.321067 -0.020155 0.946842
vn 0.320900 -0.020140 0.946899
vn 0.235949 -0.012572 0.971684
vn 0.000000 -1.000000 0.000000
vn 0.000000 -1.000000 0.000000
vn 0.000000 -1.000000 0.000000
vn 0.000000 -1.000000 0.000000
vn 0.000000 -1.000000 0.000000
vn 0.000000 -1.000000 0.000000
vn -0.392757 -0.007074 -0.919615
vn -0.345861 -0.003175 -0.938280
vn -0.345496 -0.003146 -0.938415
vn -0.392076 -0.007015 -0.919906
vn -0.165197 0.901185 -0.400720
vn -0.134630 0.907934 -0.396900
vn -0.208675 0.756520 -0.619784
vn -0.250935 0.748386 -0.613963
vn 0.000000 1.000000 0.000000
vn 0.000000 1.000000 0.000000
vn 0.434397 -0.024687 0.900383
vn 0.433409 -0.024676 0.900859
vn 0.000000 1.000000 0.000000
vn -0.202934 0.894628 -0.398068
vn -0.300378 0.744739 -0.595934
vn -0.454857 -0.013512 -0.890462
vn -0.453399 -0.013347 -0.891208
vn 0.000000 -1.000000 0.000000
vn 0.000000 -1.000000 0.000000
vn 0.000000 -1.000000 0.000000
vn 0.153200 -0.005813 0.988178
vn 0.153313 -0.005821 0.988161
vn 0.000000 1.000000 0.000000
vn -0.100763 0.912450 -0.396588
vn -0.156897 0.766739 -0.622491
vn -0.271009 -0.000606 -0.962577
vn -0.271009 -0.000606 -0.962577
vn 0.000000 -1.000000 0.000000
vn 0.000000 -1.000000 0.000000
vn 0.000000 -1.000000 0.000000
vn 0.086060 -0.001711 0.996288
vn 0.086083 -0.001712 0.996287
vn 0.000000 -1.000000 0.000000
vn 0.000000 -1.000000 0.000000
vn 0.000000 -1.000000 0.000000
vn -0.170622 0.000000 -0.985337
vn -0.170622 0.000000 -0.985337
vn -0.061704 0.915095 -0.398491
vn -0.096765 0.774703 -0.624878
vn 0.000000 1.000000 0.000000
s 1
g Inside_Bend_LP
usemtl initialShadingGroup
f 4/4/1 79/111/2 84/117/3 5/3/4
f 5/3/4 84/117/3 83/116/5 6/6/6
s 2
f 7/8/7 10/16/8 11/17/9 8/7/10
f 8/7/10 11/17/9 12/14/11 9/13/12
s 3
f 80/112/13 1/1/14 2/2/15 81/113/16
f 81/113/16 2/2/15 3/5/17 82/114/18
s 4
f 3/20/19 6/6/20 83/116/21 82/115/22
s 5
f 79/111/23 4/4/24 1/1/25 80/112/26
s 6
f 13/21/27 16/24/28 17/23/29 14/22/30
f 14/22/30 17/23/29 18/26/31 15/25/32
s 7
f 16/27/33 31/55/34 36/61/35 17/28/36
f 17/28/36 36/61/35 35/60/37 18/31/38
s 8
f 32/56/39 13/36/40 14/35/41 33/57/42
f 33/57/42 14/35/41 15/38/43 34/58/44
s 9
f 15/39/45 18/31/46 35/60/47 34/59/48
s 10
f 31/55/49 16/27/50 13/36/51 32/56/52
f 1/33/53 4/30/54 56/84/55 55/83/56
s 8
f 1/33/57 55/83/58 60/89/59 2/34/60
f 2/34/60 60/89/59 59/87/61 3/37/62
s 9
f 58/86/63 6/32/64 3/40/65 59/88/66
s 7
f 57/85/67 5/29/68 6/32/69 58/86/70
f 56/84/71 4/30/72 5/29/68 57/85/67
s 10
f 19/41/73 38/63/74 37/62/75 20/42/76
s 8
f 20/42/77 37/62/78 42/68/79 21/43/80
f 21/43/80 42/68/79 41/66/81 22/44/82
s 9
f 40/65/83 23/46/84 22/45/85 41/67/86
s 7
f 39/64/87 24/47/88 23/46/89 40/65/90
f 38/63/91 19/41/92 24/47/88 39/64/87
s 10
f 25/48/93 31/55/49 32/56/52 26/49/94
s 8
f 26/49/95 32/56/39 33/57/42 27/50/96
f 27/50/96 33/57/42 34/58/44 28/51/97
s 9
f 35/60/47 29/53/98 28/52/99 34/59/48
s 7
f 36/61/35 30/54/100 29/53/101 35/60/37
f 31/55/34 25/48/102 30/54/100 36/61/35
s 10
f 38/63/74 25/48/93 26/49/94 37/62/75
s 7
f 25/48/102 38/63/91 39/64/87 30/54/100
f 30/54/100 39/64/87 40/65/90 29/53/101
s 9
f 29/53/98 40/65/83 41/67/86 28/52/99
s 8
f 42/68/79 27/50/96 28/51/97 41/66/81
f 37/62/78 26/49/95 27/50/96 42/68/79
s 10
f 49/76/103 19/41/73 20/42/76 50/77/104
s 7
f 19/41/92 49/76/105 54/82/106 24/47/88
f 24/47/88 54/82/106 53/81/107 23/46/89
s 9
f 23/46/84 53/81/108 52/80/109 22/45/85
s 8
f 51/78/110 21/43/80 22/44/82 52/79/111
f 50/77/112 20/42/77 21/43/80 51/78/110
s 10
f 44/70/113 49/76/103 50/77/104 43/69/114
s 8
f 43/69/115 50/77/112 51/78/110 48/75/116
f 48/75/116 51/78/110 52/79/111 47/73/117
s 9
f 53/81/108 46/72/118 47/74/119 52/80/109
s 7
f 54/82/106 45/71/120 46/72/121 53/81/107
f 49/76/105 44/70/122 45/71/120 54/82/106
s 10
f 56/84/55 44/70/113 43/69/114 55/83/56
s 7
f 44/70/122 56/84/71 57/85/67 45/71/120
f 45/71/120 57/85/67 58/86/70 46/72/121
s 9
f 46/72/118 58/86/63 59/88/66 47/74/119
s 8
f 60/89/59 48/75/116 47/73/117 59/87/61
f 55/83/58 43/69/115 48/75/116 60/89/59
s 5
f 10/11/123 7/15/124 98/133/125 97/132/126
s 3
f 10/11/127 97/132/128 102/138/129 11/10/130
f 11/10/130 102/138/129 101/136/131 12/19/132
s 4
f 100/135/133 9/9/134 12/12/135 101/137/136
s 1
f 99/134/137 8/18/138 9/9/139 100/135/140
f 98/133/141 7/15/142 8/18/138 99/134/137
s 5
f 61/90/143 74/105/144 73/104/145 62/91/146
s 3
f 62/91/147 73/104/148 78/110/149 63/92/150
f 63/92/150 78/110/149 77/108/151 64/93/152
s 4
f 76/107/153 65/95/154 64/94/155 77/109/156
s 1
f 75/106/157 66/96/158 65/95/159 76/107/160
f 74/105/161 61/90/162 66/96/158 75/106/157
s 5
f 74/105/144 67/97/163 68/98/164 73/104/145
s 1
f 67/97/165 74/105/161 75/106/157 72/103/166
f 72/103/166 75/106/157 76/107/160 71/102/167
s 4
f 71/102/168 76/107/153 77/109/156 70/101/169
s 3
f 78/110/149 69/99/170 70/100/171 77/108/151
f 73/104/148 68/98/172 69/99/170 78/110/149
s 5
f 67/97/163 79/111/23 80/112/26 68/98/164
s 3
f 68/98/172 80/112/13 81/113/16 69/99/170
f 69/99/170 81/113/16 82/114/18 70/100/171
s 4
f 83/116/21 71/102/168 70/101/169 82/115/22
s 1
f 84/117/3 72/103/166 71/102/167 83/116/5
f 79/111/2 67/97/165 72/103/166 84/117/3
s 5
f 91/125/173 61/90/143 62/91/146 92/126/174
s 1
f 61/90/162 91/125/175 96/131/176 66/96/158
f 66/96/158 96/131/176 95/130/177 65/95/159
s 4
f 65/95/154 95/130/178 94/129/179 64/94/155
s 3
f 93/127/180 63/92/150 64/93/152 94/128/181
f 92/126/182 62/91/147 63/92/150 93/127/180
s 5
f 86/119/183 91/125/173 92/126/174 85/118/184
s 3
f 85/118/185 92/126/182 93/127/180 90/124/186
f 90/124/186 93/127/180 94/128/181 89/122/187
s 4
f 95/130/178 88/121/188 89/123/189 94/129/179
s 1
f 96/131/176 87/120/190 88/121/191 95/130/177
f 91/125/175 86/119/192 87/120/190 96/131/176
s 5
f 98/133/125 86/119/183 85/118/184 97/132/126
s 1
f 86/119/192 98/133/141 99/134/137 87/120/190
f 87/120/190 99/134/137 100/135/140 88/121/191
s 4
f 88/121/188 100/135/133 101/137/136 89/123/189
s 3
f 102/138/129 90/124/186 89/122/187 101/136/131
f 97/132/128 85/118/185 90/124/186 102/138/129
